<svg xmlns="http://www.w3.org/2000/svg" xmlns:xlink="http://www.w3.org/1999/xlink" width="440" height="437" viewBox="0 0 440 437"><defs><style>.a{fill:#fff;}.b{fill:#f7f7f7;}.c{clip-path:url(#a);}.d{fill:#100840;opacity:0.1;}.e{fill:rgba(255,255,255,0);stroke:#100840;}.f,.g{fill:#0c0c0c;}.f,.h{font-size:10px;font-family:Montserrat-Medium, Montserrat;font-weight:500;}.g{font-size:14px;font-family:Montserrat-Bold, Montserrat;font-weight:700;}.h{fill:#373737;}</style><clipPath id="a"><rect class="a" width="336" height="369"/></clipPath></defs><g transform="translate(-480 -588)"><rect class="b" width="440" height="437" rx="16" transform="translate(480 588)"/><g class="c" transform="translate(900 646) rotate(90)"><g transform="translate(-1.207 63.966)"><path class="d" d="M-420.58,506.267s.391-31.028,41.8-46.144,44.148-58.873,61.338-58.078,38.287-44.553,58.994-35.8,23.441,27.846,54.7,23.072,36.725,23.072,66.808,27.846,37.506,34.21,53.134,32.619,0,261.748,0,261.748H-420.58Z" transform="translate(420.58 -365.122)"/><path class="e" d="M-420.58,506.267s.391-31.028,41.8-46.144,44.148-58.873,61.338-58.078,38.287-44.553,58.994-35.8,23.441,27.846,54.7,23.072,36.725,23.072,66.808,27.846,37.506,34.21,53.134,32.619c8.955-.912,7.647,85.161,4.894,158.938-2.045,54.8-4.894,102.81-4.894,102.81H-420.58Z" transform="translate(420.58 -365.122)"/></g></g><text class="f" transform="translate(531 1002)"><tspan x="0" y="0">$0</tspan></text><text class="f" transform="translate(597 1002)"><tspan x="0" y="0">$1000</tspan></text><text class="f" transform="translate(668 1002)"><tspan x="0" y="0">$2000</tspan></text><text class="f" transform="translate(739 1002)"><tspan x="0" y="0">$3000</tspan></text><text class="f" transform="translate(810 1002)"><tspan x="0" y="0">$4000</tspan></text><text class="f" transform="translate(868 1002)"><tspan x="0" y="0">$5000</tspan></text><text class="g" transform="translate(500 622)"><tspan x="0" y="0">Payouts</tspan></text><text class="h" transform="translate(501 715)"><tspan x="0" y="0">Mar</tspan></text><text class="h" transform="translate(500 773)"><tspan x="0" y="0">May</tspan></text><text class="h" transform="translate(503 656)"><tspan x="0" y="0">Jan</tspan></text><text class="h" transform="translate(502 685)"><tspan x="0" y="0">Feb</tspan></text><text class="h" transform="translate(503 744)"><tspan x="0" y="0">Apr</tspan></text><text class="h" transform="translate(501 979)"><tspan x="0" y="0">Dec</tspan></text><text class="h" transform="translate(506 832)"><tspan x="0" y="0">Jul</tspan></text><text class="h" transform="translate(502 891)"><tspan x="0" y="0">Sep</tspan></text><text class="h" transform="translate(503 920)"><tspan x="0" y="0">Oct</tspan></text><text class="h" transform="translate(501 950)"><tspan x="0" y="0">Nov</tspan></text><text class="h" transform="translate(500 862)"><tspan x="0" y="0">Aug</tspan></text><text class="h" transform="translate(502 803)"><tspan x="0" y="0">Jun</tspan></text></g></svg>