<svg xmlns="http://www.w3.org/2000/svg" xmlns:xlink="http://www.w3.org/1999/xlink" width="175" height="175" viewBox="0 0 175 175"><defs><style>.a,.c{fill:#f3c;}.a{stroke:#707070;}.b{opacity:0.5;clip-path:url(#a);}</style><clipPath id="a"><rect class="a" width="175" height="175" transform="translate(60 2251)"/></clipPath></defs><g class="b" transform="translate(-60 -2251)"><g transform="matrix(0.966, -0.259, 0.259, 0.966, 35.666, 2291.698)"><g transform="translate(5.469)"><path class="c" d="M134.411,109.766a29.646,29.646,0,0,0-23.86,12.152L63.655,97.9a28.073,28.073,0,0,0-.875-19.427l49.079-29.534a29.593,29.593,0,1,0-7.2-19.188,29.481,29.481,0,0,0,2.07,10.7L57.5,70.074a29.705,29.705,0,1,0,1.871,36.78l46.742,23.935a29.35,29.35,0,0,0-1.458,8.732,29.756,29.756,0,1,0,29.756-29.756Z" transform="translate(-5.469)"/></g></g></g></svg>