<svg xmlns="http://www.w3.org/2000/svg" width="207" height="207">
    <defs>
        <clipPath id="clip-path">
            <rect id="Rectangle_447" data-name="Rectangle 447" class="cls-1" width="207" height="207" rx="24" transform="translate(91 1345)"/>
        </clipPath>
        <style>
            .cls-1{fill:#1981fc}
        </style>
    </defs>
    <g id="Mask_Group_5" data-name="Mask Group 5" transform="translate(-91 -1345)" style="clip-path:url(#clip-path)">
        <g id="calendar" transform="translate(91 1347.088)">
            <path id="Path_1859" data-name="Path 1859" class="cls-1" d="M207 40.424A40.12 40.12 0 0 0 166.96.33h-.026A40.127 40.127 0 0 0 128.9 27.876H66.772V15.355a12.519 12.519 0 1 0-25.038 0v12.52H21.976A22 22 0 0 0 0 49.85v131.329a22 22 0 0 0 21.977 21.974H170a22 22 0 0 0 21.974-21.974V73.032a4.067 4.067 0 0 0-.248-1.227A39.977 39.977 0 0 0 207 40.425zM166.934 8.676h.019a31.72 31.72 0 0 1-.019 63.439h-.021a31.692 31.692 0 0 1-31-38.315 4.1 4.1 0 0 0 .267-1.032 31.751 31.751 0 0 1 30.754-24.092zM50.081 15.355a4.173 4.173 0 0 1 8.346 0V44.57a4.173 4.173 0 0 1-8.346 0zm133.545 165.824A13.643 13.643 0 0 1 170 194.808H21.976a13.645 13.645 0 0 1-13.63-13.629V90.474h20.866v83.467a4.172 4.172 0 0 0 4.174 4.174h100.159a4.216 4.216 0 0 0 2.952-1.223l25.038-25.04a4.093 4.093 0 0 0 .817-1.223 4 4 0 0 0 .141-.389 4.2 4.2 0 0 0 .215-1.082c0-.088.05-.17.05-.258V90.474h20.866v90.705zm-29.212-90.705v54.255h-20.869a4.168 4.168 0 0 0-4.172 4.172v20.866H37.56V90.474zm-5.9 62.6-10.791 10.791v-10.79zm35.115-70.947H8.348V49.849a13.643 13.643 0 0 1 13.628-13.628h19.758v8.349a12.52 12.52 0 0 0 25.04 0v-8.349h60.311a41 41 0 0 0-.22 4.146 40.12 40.12 0 0 0 40.039 40.094h.029a39.742 39.742 0 0 0 16.692-3.692zm0 0" transform="translate(0 -.33)"/>
            <path id="Path_1860" data-name="Path 1860" class="cls-1" d="M92.965 198.1h33.386a4.173 4.173 0 0 0 0-8.346H92.965a4.173 4.173 0 1 0 0 8.346zm0 0" transform="translate(-38.709 -82.911)"/>
            <path id="Path_1861" data-name="Path 1861" class="cls-1" d="M92.965 235.089h58.424a4.173 4.173 0 1 0 0-8.346H92.965a4.173 4.173 0 1 0 0 8.346zm0 0" transform="translate(-38.709 -99.039)"/>
            <path id="Path_1862" data-name="Path 1862" class="cls-1" d="M151.389 263.738H92.964a4.173 4.173 0 1 0 0 8.346h58.424a4.173 4.173 0 1 0 0-8.346zm0 0" transform="translate(-38.709 -115.168)"/>
            <path id="Path_1863" data-name="Path 1863" class="cls-1" d="M268.8 75.064a4.183 4.183 0 0 0 5.905 0l9.256-9.244 9.246 9.256a4.176 4.176 0 1 0 5.91-5.9l-9.246-9.256 9.258-9.246a4.176 4.176 0 1 0-5.9-5.91l-9.258 9.246-9.244-9.258a4.176 4.176 0 1 0-5.91 5.9l9.244 9.258-9.261 9.248a4.18 4.18 0 0 0 0 5.906zm0 0" transform="translate(-116.656 -19.166)"/>
        </g>
    </g>
</svg>
