<svg xmlns="http://www.w3.org/2000/svg" width="175" height="175">
    <defs>
        <clipPath id="clip-path">
            <path id="Rectangle_457" data-name="Rectangle 457" transform="translate(1685 1959)" style="stroke:#707070;fill:#f3c" d="M0 0h175v175H0z"/>
        </clipPath>
        <style>
            .cls-3{fill:#f3c}
        </style>
    </defs>
    <g id="Mask_Group_10" data-name="Mask Group 10" transform="translate(-1685 -1959)" style="opacity:.5;clip-path:url(#clip-path)">
        <g id="location" transform="rotate(14.98 -6507.363 7526.349)">
            <path id="Path_1886" data-name="Path 1886" class="cls-3" d="M151.159 122.66a4.841 4.841 0 0 0-4.662 8.486c5.767 3.168 9.075 6.681 9.075 9.636 0 3.615-5.122 9.218-19.5 14.1-14.2 4.826-33.184 7.483-53.445 7.483s-39.242-2.657-53.445-7.483c-14.377-4.884-19.5-10.488-19.5-14.1 0-2.956 3.308-6.468 9.075-9.637a4.841 4.841 0 0 0-4.657-8.485C7.665 126.192 0 132.2 0 140.783c0 6.576 4.523 15.952 26.067 23.271 15.18 5.157 35.267 8 56.56 8s41.38-2.84 56.56-8c21.544-7.32 26.067-16.7 26.067-23.271 0-8.583-7.665-14.591-14.095-18.123z" transform="translate(0 -6.798)"/>
            <path id="Path_1887" data-name="Path 1887" class="cls-3" d="M47.724 147.569c9.828 2.776 22.809 4.306 36.552 4.306s26.724-1.529 36.552-4.306c12.024-3.4 18.121-8.313 18.121-14.613s-6.1-11.216-18.121-14.613c-2.669-.754-5.572-1.415-8.658-1.979q-2.514 4.344-5.268 8.943c3.416.513 6.623 1.141 9.536 1.883 8.849 2.254 12.082 4.791 12.746 5.766-.665.976-3.9 3.513-12.746 5.766-8.375 2.133-19.151 3.35-30.5 3.459-.55.041-1.1.064-1.661.064s-1.112-.023-1.662-.064c-11.349-.109-22.125-1.325-30.5-3.459-8.849-2.254-12.081-4.791-12.746-5.766.665-.975 3.9-3.513 12.746-5.766 2.913-.742 6.12-1.37 9.536-1.883q-2.754-4.6-5.268-8.943c-3.086.565-5.99 1.226-8.658 1.979C35.7 121.74 29.6 126.657 29.6 132.956s6.1 11.217 18.124 14.613z" transform="translate(-1.649 -6.48)"/>
            <path id="Path_1888" data-name="Path 1888" class="cls-3" d="M84.846 126.082a12.189 12.189 0 0 0 10.473-5.875c15.754-25.775 34.533-59.744 34.533-75.2a45.006 45.006 0 0 0-90.012 0c0 15.457 18.779 49.427 34.533 75.2a12.19 12.19 0 0 0 10.473 5.875zm-18.09-84.166a18.09 18.09 0 1 1 18.09 18.09 18.11 18.11 0 0 1-18.09-18.09z" transform="translate(-2.219)"/>
        </g>
    </g>
</svg>
