<svg xmlns="http://www.w3.org/2000/svg" width="400" height="245" viewBox="0 0 400 245">
  <g id="Group_669" data-name="Group 669" transform="translate(-60 -460)">
    <g id="Rectangle_470" data-name="Rectangle 470" transform="translate(60 460)" fill="#f7f7f7" stroke="#100840" stroke-width="1">
      <rect width="400" height="245" rx="16" stroke="none"/>
      <rect x="0.5" y="0.5" width="399" height="244" rx="15.5" fill="none"/>
    </g>
    <g id="image" transform="translate(231 522)">
      <path id="Path_1918" data-name="Path 1918" d="M128.559,92.274a4.852,4.852,0,1,0,4.851-4.793A4.828,4.828,0,0,0,128.559,92.274Zm7.359,0A2.508,2.508,0,1,1,133.41,89.8,2.5,2.5,0,0,1,135.918,92.274Zm0,0" transform="translate(-113.494 -77.352)" fill="#100840"/>
      <path id="Path_1919" data-name="Path 1919" d="M335.5,2.319a1.186,1.186,0,0,0,.829-.339,1.148,1.148,0,0,0,0-1.637,1.181,1.181,0,0,0-1.657,0,1.146,1.146,0,0,0,0,1.637A1.188,1.188,0,0,0,335.5,2.319Zm0,0" transform="translate(-295.149 -0.003)" fill="#100840"/>
      <path id="Path_1920" data-name="Path 1920" d="M54.141,0h-9.57A1.165,1.165,0,0,0,43.4,1.157a1.165,1.165,0,0,0,1.172,1.158h9.57a3.5,3.5,0,0,1,3.516,3.473v32.3L38.645,19.3a1.183,1.183,0,0,0-1.658,0L24.62,31.519,21.662,28.6A1.182,1.182,0,0,0,20,28.6L2.688,45.706a3.417,3.417,0,0,1-.343-1.5V5.788A3.5,3.5,0,0,1,5.86,2.315h29.8a1.165,1.165,0,0,0,1.172-1.158A1.165,1.165,0,0,0,35.665,0H5.86A5.831,5.831,0,0,0,0,5.788V44.211a5.733,5.733,0,0,0,1.645,4.016c.022.026.045.052.07.077s.05.046.076.067A5.876,5.876,0,0,0,5.86,50H54.142A5.831,5.831,0,0,0,60,44.211V5.788A5.831,5.831,0,0,0,54.142,0Zm0,47.684H5.86a3.534,3.534,0,0,1-1.516-.34L20.833,31.053l2.958,2.922h0l7.434,7.344a1.182,1.182,0,0,0,1.657,0,1.148,1.148,0,0,0,0-1.638l-6.605-6.526,11.538-11.4,19.8,19.562c.013.013.027.024.04.036V44.21a3.5,3.5,0,0,1-3.516,3.474Zm0,0" transform="translate(-0.001 0)" fill="#100840"/>
      <path id="Path_1921" data-name="Path 1921" d="M293.652,368.785a1.18,1.18,0,0,0-.828.339,1.148,1.148,0,0,0,0,1.637,1.182,1.182,0,0,0,1.657,0,1.148,1.148,0,0,0,0-1.637A1.184,1.184,0,0,0,293.652,368.785Zm0,0" transform="translate(-258.205 -326.088)" fill="#100840"/>
    </g>
    <text id="Drag_drop_or_click_to_add_profile_picture." data-name="Drag &amp; drop or click to add profile picture." transform="translate(94 587)" fill="#0c0c0c" font-size="14" font-family="Montserrat-Bold, Montserrat" font-weight="700" opacity="0.7"><tspan x="-154" y="14">Drag &amp; drop or click to add profile picture.</tspan></text>
    <text id="JPEG_or_PNG_less_than_10MB." data-name="JPEG or PNG, less than 10MB." transform="translate(158 610)" fill="#0c0c0c" font-size="12" font-family="Montserrat-Regular, Montserrat" opacity="0.5"><tspan x="-87" y="12">JPEG or PNG, less than 10MB.</tspan></text>
    <text id="Minimum_size_800x495_px" data-name="Minimum size 800x495 px" transform="translate(158 630)" fill="#0c0c0c" font-size="12" font-family="Montserrat-Regular, Montserrat" opacity="0.5"><tspan x="-78" y="12">Minimum size 800x495 px</tspan></text>
  </g>
</svg>
