<svg xmlns="http://www.w3.org/2000/svg" width="151.282" height="151.208" viewBox="0 0 151.282 151.208"><defs><style>.a{fill:#f3c;stroke:#f3c;}</style></defs><g transform="translate(0.574 0.708)"><g transform="translate(0)"><path class="a" d="M144.213,111.9A2.93,2.93,0,0,0,143,107.937,45.945,45.945,0,0,0,92.334,113L87.6,108.262l7.731-7.731a2.93,2.93,0,0,0-4.143-4.143l-7.731,7.731L64.6,85.257a40.959,40.959,0,0,0,3.326-43.7,2.93,2.93,0,0,0-5.174,2.75A34.891,34.891,0,0,1,60.4,81.064l-12.43-12.43a7.19,7.19,0,0,0-11.834,2.609L.449,168.606A7.2,7.2,0,0,0,7.17,178.28a7.271,7.271,0,0,0,2.5-.449l97.362-35.69a7.189,7.189,0,0,0,2.61-11.834L96.5,117.164a40.079,40.079,0,0,1,43.749-4.053,2.93,2.93,0,0,0,3.962-1.213ZM46.663,158.031,20.248,131.617l7.319-19.966,39.061,39.061Zm-14.316,5.248L15,145.934l3.025-8.253L40.6,160.254Zm-24.689,9.05a1.33,1.33,0,0,1-1.707-1.707L12.777,152l13.5,13.5Zm98.2-36.652a1.3,1.3,0,0,1-.841.962l-18.011,6.6L70.346,126.578a2.93,2.93,0,1,0-4.143,4.143l14.743,14.743-8.253,3.025-42.9-42.9,3.025-8.253,14.743,14.743a2.93,2.93,0,1,0,4.143-4.143L35.038,91.271l6.6-18.011a1.3,1.3,0,0,1,.963-.841,1.413,1.413,0,0,1,.3-.033,1.275,1.275,0,0,1,.924.392L105.5,134.45a1.3,1.3,0,0,1,.358,1.227Z" transform="translate(0 -28.28)"/><path class="a" d="M294.527,30.046a2.93,2.93,0,0,0,2.93-2.93,4.455,4.455,0,0,1,4.45-4.45,10.321,10.321,0,0,0,10.309-10.309,2.93,2.93,0,1,0-5.859,0,4.455,4.455,0,0,1-4.45,4.45A10.321,10.321,0,0,0,291.6,27.116,2.93,2.93,0,0,0,294.527,30.046Z" transform="translate(-206.169 -6.666)"/><path class="a" d="M383.249,122.806A10.659,10.659,0,0,0,393.9,112.16a4.793,4.793,0,0,1,4.787-4.787,2.93,2.93,0,0,0,0-5.859,10.659,10.659,0,0,0-10.647,10.647,4.793,4.793,0,0,1-4.788,4.787,2.93,2.93,0,0,0,0,5.859Z" transform="translate(-268.898 -71.773)"/><path class="a" d="M448,170.86a9.375,9.375,0,1,0,9.375-9.375A9.386,9.386,0,0,0,448,170.86Zm9.375-3.516a3.516,3.516,0,1,1-3.516,3.516A3.52,3.52,0,0,1,457.377,167.344Z" transform="translate(-316.752 -114.175)"/><path class="a" d="M292.485,124.6a9.375,9.375,0,1,0-9.375-9.375A9.386,9.386,0,0,0,292.485,124.6Zm0-12.891a3.516,3.516,0,1,1-3.516,3.516A3.52,3.52,0,0,1,292.485,111.713Z" transform="translate(-200.168 -74.842)"/><path class="a" d="M105.377,18.75A9.375,9.375,0,1,0,96,9.375,9.386,9.386,0,0,0,105.377,18.75Zm0-12.891a3.516,3.516,0,1,1-3.516,3.516A3.52,3.52,0,0,1,105.377,5.859Z" transform="translate(-67.877)"/><path class="a" d="M440.435,348.987a2.93,2.93,0,1,0-4.143,4.143l2.762,2.762a2.93,2.93,0,1,0,4.143-4.143Z" transform="translate(-307.865 -246.139)"/><path class="a" d="M487.575,396.127a2.93,2.93,0,0,0-4.143,4.143l2.762,2.762a2.93,2.93,0,0,0,4.143-4.143Z" transform="translate(-341.195 -279.468)"/><path class="a" d="M486.193,348.987l-2.762,2.762a2.93,2.93,0,1,0,4.143,4.143l2.762-2.762a2.93,2.93,0,1,0-4.143-4.143Z" transform="translate(-341.195 -246.138)"/><path class="a" d="M439.053,396.127l-2.762,2.762a2.93,2.93,0,1,0,4.143,4.143l2.762-2.762a2.93,2.93,0,0,0-4.143-4.143Z" transform="translate(-307.865 -279.468)"/><path class="a" d="M485.5,8.622a2.92,2.92,0,0,0,2.072-.858L490.337,5A2.93,2.93,0,0,0,486.193.858L483.431,3.62a2.93,2.93,0,0,0,2.072,5Z" transform="translate(-341.195 0)"/><path class="a" d="M438.362,55.761a2.92,2.92,0,0,0,2.072-.858l2.762-2.762A2.93,2.93,0,0,0,439.052,48l-2.762,2.762a2.93,2.93,0,0,0,2.072,5Z" transform="translate(-307.865 -33.329)"/><path class="a" d="M487.575,48a2.93,2.93,0,0,0-4.143,4.143l2.762,2.762a2.93,2.93,0,1,0,4.143-4.143Z" transform="translate(-341.195 -33.33)"/><path class="a" d="M439.053,7.764A2.93,2.93,0,1,0,443.2,3.62L440.434.858A2.93,2.93,0,1,0,436.29,5Z" transform="translate(-307.865 0)"/><path class="a" d="M194.151,300.78a2.931,2.931,0,1,0,2.071.858A2.952,2.952,0,0,0,194.151,300.78Z" transform="translate(-135.199 -212.661)"/><path class="a" d="M339.921,194.545l-2.124,2.124a2.93,2.93,0,1,0,4.143,4.143l2.124-2.124a2.93,2.93,0,0,0-4.143-4.143Z" transform="translate(-238.227 -136.943)"/></g></g></svg>