<svg xmlns="http://www.w3.org/2000/svg" width="24" height="24">
    <defs>
        <clipPath id="clip-path">
            <path id="Rectangle_611" data-name="Rectangle 611" transform="translate(1072 4648)" style="opacity:.5;fill:#fff" d="M0 0h24v24H0z"/>
        </clipPath>
        <style>
            .cls-3{fill:#fff}
        </style>
    </defs>
    <g id="Instagram" transform="translate(-1072 -4648)" style="clip-path:url(#clip-path)">
        <g id="instagram_1_" data-name="facebook" transform="translate(1071.98 4648)">
            <path id="Path_2027" data-name="Path 2027" class="cls-3" d="M23.955 7.056a8.77 8.77 0 0 0-.555-2.912A6.148 6.148 0 0 0 19.886.633a8.792 8.792 0 0 0-2.912-.558C15.69.014 15.282 0 12.023 0S8.357.014 7.077.07a8.772 8.772 0 0 0-2.911.558 5.856 5.856 0 0 0-2.129 1.388A5.909 5.909 0 0 0 .654 4.14 8.793 8.793 0 0 0 .1 7.051C.035 8.336.021 8.744.021 12s.014 3.666.07 4.946a8.769 8.769 0 0 0 .558 2.914 6.147 6.147 0 0 0 3.512 3.512 8.793 8.793 0 0 0 2.912.558c1.28.056 1.688.07 4.946.07s3.666-.014 4.946-.07a8.768 8.768 0 0 0 2.911-.558 6.139 6.139 0 0 0 3.512-3.512 8.8 8.8 0 0 0 .558-2.912c.056-1.28.07-1.688.07-4.946s0-3.666-.061-4.946zm-2.161 9.8a6.578 6.578 0 0 1-.413 2.227 3.981 3.981 0 0 1-2.281 2.278 6.6 6.6 0 0 1-2.227.412c-1.266.056-1.646.07-4.848.07s-3.587-.014-4.848-.07a6.575 6.575 0 0 1-2.227-.412 3.693 3.693 0 0 1-1.378-.9 3.731 3.731 0 0 1-.9-1.378 6.6 6.6 0 0 1-.412-2.227c-.056-1.266-.07-1.646-.07-4.848s.014-3.587.07-4.848a6.575 6.575 0 0 1 .412-2.227 3.648 3.648 0 0 1 .9-1.379 3.726 3.726 0 0 1 1.378-.9 6.606 6.606 0 0 1 2.235-.404c1.266-.056 1.646-.07 4.848-.07s3.587.014 4.848.07a6.578 6.578 0 0 1 2.227.413 3.69 3.69 0 0 1 1.378.9 3.731 3.731 0 0 1 .9 1.379 6.6 6.6 0 0 1 .413 2.227c.056 1.266.07 1.646.07 4.848s-.014 3.577-.07 4.843zm0 0"/>
            <path id="Path_2028" data-name="Path 2028" class="cls-3" d="M12.023 5.837A6.165 6.165 0 1 0 18.189 12a6.167 6.167 0 0 0-6.166-6.163zm0 10.165a4 4 0 1 1 4-4 4 4 0 0 1-4 4zm0 0"/>
            <path id="Path_2029" data-name="Path 2029" class="cls-3" d="M19.872 5.593a1.439 1.439 0 1 1-1.439-1.439 1.439 1.439 0 0 1 1.439 1.439zm0 0"/>
        </g>
    </g>
</svg>