<svg xmlns="http://www.w3.org/2000/svg" width="24" height="24" viewBox="0 0 24 24"><defs><style>.a{fill:#100840;}</style></defs><path class="a" d="M21.934,0H2.066A2.068,2.068,0,0,0,0,2.066V21.934A2.068,2.068,0,0,0,2.066,24H21.934A2.068,2.068,0,0,0,24,21.934V2.066A2.068,2.068,0,0,0,21.934,0ZM2.066,1.77H21.934a.3.3,0,0,1,.3.3v2.9H1.77v-2.9A.3.3,0,0,1,2.066,1.77ZM21.934,22.23H2.066a.3.3,0,0,1-.3-.3V6.74H22.23V21.934A.3.3,0,0,1,21.934,22.23Z"/><path class="a" d="M83.764,105.19h-2.8v-2.8a.885.885,0,1,0-1.77,0v2.8h-2.8a.885.885,0,1,0,0,1.77h2.8v2.8a.885.885,0,1,0,1.77,0v-2.8h2.8a.885.885,0,1,0,0-1.77Z" transform="translate(-68.076 -91.518)"/></svg>