<svg xmlns="http://www.w3.org/2000/svg" width="48" height="48" viewBox="0 0 48 48">
  <path id="Icon_ionic-ios-checkmark-circle" data-name="Icon ionic-ios-checkmark-circle" d="M27.375,3.375a24,24,0,1,0,24,24A24,24,0,0,0,27.375,3.375ZM39.663,20.74l-15.427,15.5h-.012a2.084,2.084,0,0,1-1.338.635,2.02,2.02,0,0,1-1.35-.658l-6.462-6.462a.46.46,0,0,1,0-.658l2.054-2.054a.446.446,0,0,1,.646,0L22.9,32.163,36.975,17.983a.456.456,0,0,1,.323-.138h0a.419.419,0,0,1,.323.138l2.019,2.088A.455.455,0,0,1,39.663,20.74Z" transform="translate(-3.375 -3.375)" fill="#100840"/>
</svg>
