<svg xmlns="http://www.w3.org/2000/svg" xmlns:xlink="http://www.w3.org/1999/xlink" width="150" height="150" viewBox="0 0 150 150"><defs><style>.a,.c{fill:#100840;}.a{stroke:#fff;}.b{clip-path:url(#a);}</style><clipPath id="a"><rect class="a" width="150" height="150"/></clipPath></defs><g class="b"><g transform="translate(5.389 0)"><path class="c" d="M37.844,78.322l-.061-.061a2.336,2.336,0,0,1-.245-.337c-.031-.031-.031-.061-.061-.092-.061-.122-.153-.245-.214-.367a.107.107,0,0,0-.031-.061c-.061-.122-.122-.245-.184-.4,0-.031,0-.031-.031-.061-.061-.122-.092-.276-.153-.429,0-.031,0-.061-.031-.061a2.145,2.145,0,0,1-.092-.429.276.276,0,0,0-.031-.153c-.031-.122-.031-.245-.061-.367a4.441,4.441,0,0,1,0-1.041,1.537,1.537,0,0,1,.061-.367.276.276,0,0,1,.031-.153c.031-.153.061-.276.092-.429,0-.031,0-.061.031-.061a2.4,2.4,0,0,1,.153-.429c0-.031,0-.031.031-.061.061-.122.122-.276.184-.4a.107.107,0,0,1,.031-.061,2.284,2.284,0,0,1,.214-.367c.031-.031.031-.061.061-.092a3.207,3.207,0,0,1,.245-.337l.061-.061a4.35,4.35,0,0,1,.367-.4L68.494,41a5.261,5.261,0,1,1,7.44,7.44l-21.31,21.31h84.721a5.251,5.251,0,1,1,0,10.5H54.593L75.75,101.408a5.25,5.25,0,1,1-7.41,7.44l-30.1-30.1C38.089,78.567,37.967,78.445,37.844,78.322Z" transform="translate(-36.62 0)"/><path class="c" d="M49.847,10.5H10.655a5.251,5.251,0,1,1,0-10.5H49.847A28.552,28.552,0,0,1,78.353,28.506v92.988A28.552,28.552,0,0,1,49.847,150H11.3a5.251,5.251,0,1,1,0-10.5H49.847a18.033,18.033,0,0,0,18-18V28.506A18.033,18.033,0,0,0,49.847,10.5Z" transform="translate(60.87 0)"/></g></g></svg>