<svg xmlns="http://www.w3.org/2000/svg" xmlns:xlink="http://www.w3.org/1999/xlink" width="48" height="48" viewBox="0 0 48 48"><defs><style>.a,.d,.e{fill:#100840;}.a{stroke:#707070;}.b{fill:#fff;}.c{clip-path:url(#a);}.d{stroke:#fff;stroke-width:1.2px;}</style><clipPath id="a"><rect class="a" width="24" height="24" transform="translate(0 0)"/></clipPath></defs><rect class="b" width="48" height="48" rx="24"/><g class="c" transform="translate(12 12)"><g transform="translate(-0.075 -0.074)"><path class="d" d="M10.493,24.148a1.134,1.134,0,0,1-1.111-1.356l1.069-5.345a1.13,1.13,0,0,1,.31-.579L26.415,1.215a4.156,4.156,0,1,1,5.877,5.877L16.638,22.747a1.126,1.126,0,0,1-.579.31l-5.343,1.069a1.117,1.117,0,0,1-.224.023Zm5.345-2.2h0Zm-3.232-3.717-.667,3.34,3.339-.668L30.69,5.49a1.89,1.89,0,0,0-2.672-2.672Zm0,0" transform="translate(-9.36 0)"/></g><g transform="translate(2 2)"><path class="e" d="M23.5,7a.5.5,0,0,1-.5-.5A7.2,7.2,0,0,0,19.5,3a.5.5,0,0,1,0-1A7.29,7.29,0,0,1,24,6.5.5.5,0,0,1,23.5,7Z" transform="translate(-19 13)"/><path class="e" d="M23.5,7a.5.5,0,0,1-.5-.5A7.2,7.2,0,0,0,19.5,3a.5.5,0,0,1,0-1A7.29,7.29,0,0,1,24,6.5.5.5,0,0,1,23.5,7Z" transform="translate(-4 -2)"/></g></g></svg>