<svg xmlns="http://www.w3.org/2000/svg" xmlns:xlink="http://www.w3.org/1999/xlink" width="18" height="18" viewBox="0 0 18 18">
  <defs>
    <clipPath id="clip-path">
      <rect id="Rectangle_591" data-name="Rectangle 591" width="18" height="18" transform="translate(95 781)" fill="#0c0c0c" opacity="0.1"/>
    </clipPath>
  </defs>
  <g id="Mask_Group_49" data-name="Mask Group 49" transform="translate(-95 -781)" clip-path="url(#clip-path)">
    <g id="_11-global" data-name="11-global" transform="translate(94.803 780.784)">
      <g id="linear_color" data-name="linear color">
        <path id="Path_2007" data-name="Path 2007" d="M1.15,11.3a.36.36,0,0,0,.332-.5A7.13,7.13,0,0,1,11.864,2.032a.36.36,0,1,0,.384-.609A7.851,7.851,0,0,0,.818,11.083a.36.36,0,0,0,.332.221Z" fill="#0c0c0c"/>
        <path id="Path_2008" data-name="Path 2008" d="M17.244,11.16H15.276a7.876,7.876,0,0,0,.543-4.3.36.36,0,0,0-.712.11,7.214,7.214,0,0,1,.084,1.1,7.045,7.045,0,0,1-.706,3.1H12.663a5.544,5.544,0,1,0-4.707,2.447v1.584a7.076,7.076,0,0,1-2.638-.547.36.36,0,0,0-.278.664,7.792,7.792,0,0,0,2.916.6V17.28a.937.937,0,0,0,.936.936h8.352a.937.937,0,0,0,.936-.936V12.1A.937.937,0,0,0,17.244,11.16Zm.216.936v.5H8.676v-.5a.216.216,0,0,1,.216-.216h8.352a.216.216,0,0,1,.216.216Zm0,1.692H8.676V13.32H17.46ZM3.24,8.064a4.808,4.808,0,0,1,.2-1.368H5.479a11.913,11.913,0,0,0,0,2.736H3.438a4.808,4.808,0,0,1-.2-1.368Zm2.88,0A11.022,11.022,0,0,1,6.2,6.7H9.925a11.022,11.022,0,0,1,.083,1.368,11.022,11.022,0,0,1-.084,1.368H6.2A11.022,11.022,0,0,1,6.12,8.064ZM8.064,3.24c.672,0,1.4,1.058,1.743,2.736H6.321C6.664,4.3,7.392,3.24,8.064,3.24Zm4.824,4.824a4.826,4.826,0,0,1-.2,1.368H10.648a11.747,11.747,0,0,0,.08-1.368A11.8,11.8,0,0,0,10.649,6.7H12.69A4.808,4.808,0,0,1,12.888,8.064ZM9.806,10.152a7.637,7.637,0,0,1-.275,1.008H8.892a.937.937,0,0,0-.936.936v.783c-.64-.106-1.31-1.138-1.635-2.727Zm.484,1.008a8.831,8.831,0,0,0,.25-1.008h1.874a4.814,4.814,0,0,1-.65,1.008Zm2.123-5.184H10.54a7.854,7.854,0,0,0-.518-1.724A4.639,4.639,0,0,0,9.6,3.491a4.85,4.85,0,0,1,2.811,2.485ZM6.527,3.491a4.639,4.639,0,0,0-.421.761,7.854,7.854,0,0,0-.518,1.724H3.716A4.85,4.85,0,0,1,6.527,3.491ZM3.716,10.152H5.588a7.854,7.854,0,0,0,.518,1.724,4.639,4.639,0,0,0,.421.761A4.85,4.85,0,0,1,3.716,10.152ZM17.244,17.5H8.892a.216.216,0,0,1-.216-.216V14.508H17.46V17.28a.216.216,0,0,1-.216.216Z" fill="#0c0c0c"/>
        <path id="Path_2009" data-name="Path 2009" d="M12.42,15.156H9.5a.36.36,0,0,0,0,.72H12.42a.36.36,0,1,0,0-.72Z" fill="#0c0c0c"/>
        <path id="Path_2010" data-name="Path 2010" d="M14.652,3.24h.612a.5.5,0,0,1,.5.5V3.78a.5.5,0,0,1-.5.5h-.908a.2.2,0,0,1-.2-.2V4.045a.36.36,0,0,0-.72-.013v.037A.918.918,0,0,0,14.356,5h.26V5.22a.36.36,0,0,0,.72,0V5A1.225,1.225,0,0,0,16.488,3.78V3.744A1.225,1.225,0,0,0,15.264,2.52h-.612a.5.5,0,0,1,0-1.008h.893a.2.2,0,0,1,.2.207.36.36,0,1,0,.719.031.918.918,0,0,0-.917-.958h-.209V.576a.36.36,0,1,0-.72,0V.793a1.224,1.224,0,1,0,.036,2.447Z" fill="#0c0c0c"/>
        <path id="Path_2011" data-name="Path 2011" d="M2.628,14.58H2.016a.5.5,0,1,1,0-1.008h.893a.2.2,0,0,1,.2.207.36.36,0,0,0,.719.031.918.918,0,0,0-.917-.958H2.7v-.216a.36.36,0,0,0-.72,0v.217A1.224,1.224,0,1,0,2.016,15.3h.612a.5.5,0,0,1,.5.5v.036a.5.5,0,0,1-.5.5H1.72a.2.2,0,0,1-.2-.2V16.1a.36.36,0,1,0-.72-.013v.037a.918.918,0,0,0,.918.935h.26v.216a.36.36,0,1,0,.72,0v-.218A1.225,1.225,0,0,0,3.852,15.84V15.8A1.225,1.225,0,0,0,2.628,14.58Z" fill="#0c0c0c"/>
      </g>
    </g>
  </g>
</svg>
