<svg xmlns="http://www.w3.org/2000/svg" width="200" height="200" viewBox="0 0 200 200"><defs><style>.a{fill:#f7f7f7;stroke:#100840;}.b,.c{fill:#0c0c0c;}.b{font-size:14px;font-family:Montserrat-Bold, Montserrat;font-weight:700;opacity:0.7;}.c{font-size:12px;font-family:Montserrat-Regular, Montserrat;opacity:0.5;}.d{fill:#100840;}.e{stroke:none;}.f{fill:none;}</style></defs><g transform="translate(-480 -345)"><g class="a" transform="translate(480 345)"><rect class="e" width="200" height="200" rx="16"/><rect class="f" x="0.5" y="0.5" width="199" height="199" rx="15.5"/></g><text class="b" transform="translate(495 444)"><tspan x="0.39" y="14">Drag &amp; drop or click to </tspan><tspan x="0.469" y="32">add profile picture.</tspan></text><text class="c" transform="translate(495 490)"><tspan x="0" y="12">JPEG or PNG, less than </tspan><tspan x="0" y="27">10MB.</tspan></text><g transform="translate(552 385)"><path class="d" d="M128.559,92.082a4.528,4.528,0,1,0,4.528-4.6A4.57,4.57,0,0,0,128.559,92.082Zm6.868,0a2.341,2.341,0,1,1-2.34-2.378A2.362,2.362,0,0,1,135.427,92.082Zm0,0" transform="translate(-114.497 -77.758)"/><path class="d" d="M335.422,2.227A1.091,1.091,0,0,0,336.2,1.9a1.124,1.124,0,0,0,0-1.572,1.081,1.081,0,0,0-1.546,0,1.123,1.123,0,0,0,0,1.572A1.093,1.093,0,0,0,335.422,2.227Zm0,0" transform="translate(-297.76 -0.004)"/><path class="d" d="M50.532,0H41.6a1.1,1.1,0,0,0-1.094,1.111A1.1,1.1,0,0,0,41.6,2.223h8.932a3.312,3.312,0,0,1,3.281,3.334v31L36.069,18.529a1.082,1.082,0,0,0-1.547,0L22.979,30.258l-2.761-2.805a1.082,1.082,0,0,0-1.547,0L2.508,43.878a3.358,3.358,0,0,1-.32-1.435V5.557A3.312,3.312,0,0,1,5.47,2.223H33.287a1.1,1.1,0,0,0,1.094-1.111A1.1,1.1,0,0,0,33.287,0H5.47A5.52,5.52,0,0,0,0,5.557V42.442A5.585,5.585,0,0,0,1.536,46.3c.021.025.042.05.066.074s.047.044.07.065A5.4,5.4,0,0,0,5.47,48H50.532A5.52,5.52,0,0,0,56,42.442V5.557A5.52,5.52,0,0,0,50.532,0Zm0,45.777H5.47a3.222,3.222,0,0,1-1.415-.326l15.39-15.64,2.761,2.805h0l6.938,7.05a1.081,1.081,0,0,0,1.547,0,1.124,1.124,0,0,0,0-1.572L24.526,31.83,35.295,20.887l18.481,18.78c.012.013.025.023.038.035v2.74a3.312,3.312,0,0,1-3.281,3.335Zm0,0" transform="translate(0 0)"/><path class="d" d="M293.574,368.785a1.086,1.086,0,0,0-.773.326,1.124,1.124,0,0,0,0,1.572,1.081,1.081,0,0,0,1.547,0,1.124,1.124,0,0,0,0-1.572A1.089,1.089,0,0,0,293.574,368.785Zm0,0" transform="translate(-260.489 -327.796)"/></g></g></svg>