<svg xmlns="http://www.w3.org/2000/svg" xmlns:xlink="http://www.w3.org/1999/xlink" width="24" height="24" viewBox="0 0 24 24"><defs><style>.a,.c{fill:#0c0c0c;}.a{stroke:#0c0c0c;}.b{clip-path:url(#a);}.d,.e{stroke:none;}.e{fill:#0c0c0c;}</style><clipPath id="a"><rect class="a" width="24" height="24" transform="translate(1216 462)"/></clipPath></defs><g class="b" transform="translate(-1216 -462)"><g transform="translate(1216.045 462)"><g class="c" transform="translate(-0.03 0)"><path class="d" d="M 18.42196464538574 23.49999809265137 C 18.32287406921387 23.49999809265137 18.22372436523438 23.49567794799805 18.11874389648438 23.49109840393066 L 18.11100006103516 23.49075698852539 C 16.37043380737305 23.37705993652344 14.76397609710693 22.70703887939453 13.55859375 22.13581848144531 C 10.36826419830322 20.58940887451172 7.574493885040283 18.40082740783691 5.258843898773193 15.63275814056396 C 3.349204063415527 13.3382682800293 2.063004016876221 11.19319820404053 1.211904048919678 8.883097648620605 C 0.6715241074562073 7.427857875823975 0.4613140821456909 6.23157787322998 0.5499041080474854 5.117117881774902 C 0.6189340949058533 4.293047904968262 0.9534140825271606 3.574758052825928 1.543864130973816 2.98429799079895 L 3.399147987365723 1.129014134407043 C 3.838494300842285 0.711644172668457 4.316755771636963 0.4999980926513672 4.820643901824951 0.4999980926513672 C 5.328433990478516 0.4999980926513672 5.799613952636719 0.7095580697059631 6.221094131469727 1.122848033905029 L 6.22615385055542 1.127808094024658 L 6.231354236602783 1.132628083229065 C 6.565974235534668 1.442658066749573 6.905184268951416 1.787358045578003 7.221904277801514 2.113677978515625 L 7.234854221343994 2.127008199691772 C 7.403173923492432 2.300288200378418 7.562164306640625 2.46396803855896 7.734394073486328 2.63618803024292 L 9.216363906860352 4.118157863616943 C 9.661184310913086 4.558907985687256 9.895443916320801 5.055168151855469 9.895443916320801 5.554908275604248 C 9.895443916320801 6.050578117370605 9.660624504089355 6.547398090362549 9.216363906860352 6.991658210754395 C 9.062113761901855 7.145917892456055 8.904523849487305 7.303508281707764 8.753084182739258 7.460008144378662 C 8.347514152526855 7.875118255615234 7.911253929138184 8.317028045654297 7.449234008789062 8.734818458557129 L 7.183444023132324 8.97514820098877 L 7.325623989105225 9.304068565368652 C 7.674154281616211 10.11033821105957 8.164024353027344 10.89321804046631 8.914013862609863 11.84248828887939 L 8.916414260864258 11.84553813934326 L 8.918864250183105 11.84853839874268 C 10.36475372314453 13.62139797210693 11.8759937286377 14.99650764465332 13.53894424438477 16.05243873596191 C 13.72686386108398 16.17201805114746 13.93418407440186 16.27782821655273 14.13039398193359 16.37592887878418 C 14.28529453277588 16.45337867736816 14.44547367095947 16.53346824645996 14.59684371948242 16.62062835693359 L 14.92892456054688 16.81182861328125 L 15.19988441467285 16.54086875915527 L 16.98024368286133 14.76050853729248 C 17.40823364257812 14.33251762390137 17.89817428588867 14.10629844665527 18.39710426330566 14.10629844665527 C 18.89594459533691 14.10629844665527 19.37668418884277 14.33186817169189 19.78733444213867 14.75862789154053 L 19.79067420959473 14.76208782196045 L 19.79407501220703 14.76548767089844 L 22.78288459777832 17.75429725646973 C 23.65234375 18.6237678527832 23.65338325500488 19.72574806213379 22.78558349609375 20.63020896911621 C 22.59323501586914 20.83092880249023 22.37525367736816 21.04732894897461 22.09939384460449 21.31144714355469 L 22.02661323547363 21.38204765319824 C 21.69736480712891 21.7013988494873 21.3863639831543 22.00303840637207 21.10036468505859 22.34820747375488 L 21.08247375488281 22.36979866027832 C 20.36531448364258 23.14076614379883 19.51929664611816 23.49999809265137 18.42196464538574 23.49999809265137 Z M 4.820643901824951 0.7183980941772461 C 4.376304149627686 0.7183980941772461 3.939794063568115 0.9130780696868896 3.558314085006714 1.281408071517944 L 3.555154085159302 1.284448146820068 L 3.552054166793823 1.287558078765869 L 1.70207405090332 3.137538194656372 C 1.143844127655029 3.695758104324341 0.8379541039466858 4.349788188934326 0.7669240832328796 5.136998176574707 L 0.7666940689086914 5.139617919921875 L 0.7664840817451477 5.142248153686523 C 0.6801440715789795 6.226888179779053 0.8888440728187561 7.396647930145264 1.42328405380249 8.823537826538086 C 2.269054174423218 11.10610771179199 3.544203996658325 13.23042774200439 5.435634136199951 15.50723838806152 C 7.731054306030273 18.25364875793457 10.49907398223877 20.42212867736816 13.66376399993896 21.95359802246094 C 14.84701442718506 22.51680755615234 16.42174339294434 23.17576789855957 18.13639450073242 23.28555870056152 C 18.23582458496094 23.29140853881836 18.33071327209473 23.29651832580566 18.42694473266602 23.29651832580566 C 19.44454383850098 23.29651832580566 20.2623233795166 22.94811820983887 20.92699432373047 22.23140716552734 L 20.93579483032227 22.2219181060791 L 20.94409370422363 22.21198844909668 C 21.23760414123535 21.86065864562988 21.56961441040039 21.53837776184082 21.89068412780762 21.22670745849609 L 21.94815444946289 21.17090797424316 C 22.16546630859375 20.96284866333008 22.39987564086914 20.73488616943359 22.62459373474121 20.49426651000977 C 23.41405296325684 19.67011833190918 23.41609382629395 18.70891761779785 22.62965393066406 17.92245864868164 L 19.63679122924805 14.93455505371094 C 19.27735137939453 14.55081844329834 18.83744430541992 14.33961772918701 18.39710426330566 14.33961772918701 C 17.9558048248291 14.33961772918701 17.51885414123535 14.54330825805664 17.13348388671875 14.9286584854126 L 15.2735538482666 16.78859901428223 C 15.19124412536621 16.87089729309082 15.06154441833496 16.98031806945801 14.88612365722656 16.98031806945801 C 14.8043737411499 16.98031806945801 14.72385406494141 16.95844841003418 14.63271427154541 16.9114990234375 L 14.6300745010376 16.91014862060547 L 14.62743377685547 16.90881729125977 L 14.62444400787354 16.90693855285645 C 14.61630725860596 16.90229034423828 14.60814189910889 16.8976879119873 14.59969329833984 16.89308547973633 C 14.41614627838135 16.7778434753418 14.21565818786621 16.67558097839355 14.02560424804688 16.58055877685547 C 13.99312400817871 16.56390762329102 13.95607376098633 16.5451774597168 13.9187536239624 16.52629852294922 C 13.74898433685303 16.44044876098633 13.57344436645508 16.3516674041748 13.41836452484131 16.25069808959961 L 13.41598415374756 16.24914741516113 L 13.41359424591064 16.24762725830078 C 11.72080421447754 15.17260837554932 10.19202423095703 13.77941799163818 8.739893913269043 11.98845767974854 C 7.958511352539062 11.00584602355957 7.442982196807861 10.16994571685791 7.072577476501465 9.28357982635498 C 7.069493770599365 9.275218963623047 7.066415786743164 9.267319679260254 7.06328296661377 9.259466171264648 C 6.986715316772461 9.027070045471191 6.987683773040771 8.879058837890625 7.193264007568359 8.673478126525879 L 7.205694198608398 8.66104793548584 L 7.207402229309082 8.659341812133789 C 7.656741142272949 8.26063060760498 8.060971260070801 7.851709365844727 8.488714218139648 7.418988227844238 L 8.592574119567871 7.313948154449463 C 8.66871452331543 7.237818241119385 8.746733665466309 7.158547878265381 8.824753761291504 7.079267978668213 C 8.900894165039062 7.001898288726807 8.977044105529785 6.92451810836792 9.053184509277344 6.848368167877197 C 9.460554122924805 6.4410080909729 9.66710376739502 6.009168148040771 9.66710376739502 5.564857959747314 C 9.66710376739502 5.120548248291016 9.460554122924805 4.688708305358887 9.053184509277344 4.28134822845459 L 7.573677062988281 2.801831007003784 C 7.487371444702148 2.713072299957275 7.40107536315918 2.625527858734131 7.315363883972168 2.53859806060791 C 7.229114055633545 2.451107978820801 7.143484115600586 2.364258050918579 7.0591139793396 2.277388095855713 L 6.923124313354492 2.139198064804077 C 6.632620334625244 1.84381091594696 6.358094692230225 1.564666271209717 6.063779354095459 1.29185426235199 C 5.691466808319092 0.9166451692581177 5.261834621429443 0.7183980941772461 4.820643901824951 0.7183980941772461 Z"/><path class="e" d="M 18.42196464538574 23.99999809265137 C 18.30758476257324 23.99999809265137 18.19818496704102 23.99502754211426 18.08380317687988 23.99004745483398 C 16.23879432678223 23.87069892883301 14.582763671875 23.17446899414062 13.34447383880615 22.58764839172363 C 10.09209442138672 21.01118850708008 7.242524147033691 18.78324890136719 4.875344276428223 15.95357799530029 C 2.925904035568237 13.61126804351807 1.613024115562439 11.41814804077148 0.7427340745925903 9.055948257446289 C 0.1758040934801102 7.529218196868896 -0.04300591349601746 6.266057968139648 0.05147408694028854 5.077497959136963 C 0.1310440897941589 4.12763786315918 0.5139740705490112 3.307088136672974 1.190314054489136 2.63074803352356 L 3.050234079360962 0.7708280682563782 C 3.582354068756104 0.263568103313446 4.189064025878906 -1.9073486328125e-06 4.820643901824951 -1.9073486328125e-06 C 5.457193851470947 -1.9073486328125e-06 6.058934211730957 0.263568103313446 6.571164131164551 0.7658481001853943 C 6.909334182739258 1.079158067703247 7.252474308013916 1.427268147468567 7.580694198608398 1.765438079833984 C 7.749773979187012 1.939498066902161 7.913884162902832 2.108578205108643 8.087944030761719 2.282638072967529 L 9.569913864135742 3.764608144760132 C 10.11198425292969 4.301698207855225 10.3954439163208 4.923327922821045 10.3954439163208 5.554908275604248 C 10.3954439163208 6.186488151550293 10.10700416564941 6.808117866516113 9.569913864135742 7.345208168029785 C 9.415754318237305 7.499378204345703 9.261584281921387 7.653538227081299 9.112394332885742 7.807708263397217 C 8.68968391418457 8.240367889404297 8.252054214477539 8.682968139648438 7.784584045410156 9.105678558349609 C 8.11778450012207 9.876498222351074 8.595193862915039 10.63240814208984 9.306344032287598 11.53252792358398 C 10.71372413635254 13.25817775726318 12.1857442855835 14.60090827941895 13.80696392059326 15.63033771514893 C 13.97107410430908 15.73476791381836 14.15508365631104 15.82925796508789 14.35400390625 15.92871856689453 C 14.51314449310303 16.00828742980957 14.68222427368164 16.09282875061035 14.84633445739746 16.18731880187988 L 16.62669372558594 14.40695762634277 C 17.14886474609375 13.88478851318359 17.76055335998535 13.60629844665527 18.39710426330566 13.60629844665527 C 19.03365325927734 13.60629844665527 19.6403636932373 13.88478851318359 20.14762496948242 14.41193771362305 L 23.13643455505371 17.40074729919434 C 24.20564460754395 18.46995735168457 24.20564460754395 19.87235832214355 23.1463737487793 20.97637748718262 C 22.9176139831543 21.215087890625 22.67891502380371 21.44881820678711 22.4451732635498 21.672607421875 C 22.1020336151123 22.00579833984375 21.77381324768066 22.3191089630127 21.48537445068359 22.66721725463867 C 21.48040390014648 22.67716789245605 21.4704532623291 22.68710899353027 21.46548461914062 22.69207763671875 C 20.65487480163574 23.57231903076172 19.66026496887207 23.99999809265137 18.42196464538574 23.99999809265137 Z M 4.820643901824951 1.218398094177246 C 4.512314319610596 1.218398094177246 4.19404411315918 1.362618088722229 3.905604124069214 1.64110803604126 L 2.055624008178711 3.491088151931763 C 1.578204035758972 3.968508005142212 1.324584126472473 4.52051830291748 1.264904141426086 5.181928157806396 C 1.185334086418152 6.181518077850342 1.379284143447876 7.280558109283447 1.89151406288147 8.648158073425293 C 2.717044115066528 10.87608814239502 3.965274095535278 12.9548282623291 5.820234298706055 15.1877384185791 C 8.073023796081543 17.88313865661621 10.7883243560791 20.00663757324219 13.88156414031982 21.5035285949707 C 15.02039432525635 22.04558753967285 16.53718376159668 22.68213844299316 18.16834449768066 22.78657722473145 C 18.25288391113281 22.79154777526855 18.34240341186523 22.79651832580566 18.42694473266602 22.79651832580566 C 19.30717468261719 22.79651832580566 19.98848342895508 22.50808715820312 20.56038475036621 21.89141845703125 C 20.88860321044922 21.49854850769043 21.25164413452148 21.15043830871582 21.59975433349609 20.8122673034668 C 21.8334846496582 20.58847808837891 22.05230331420898 20.37463760375977 22.26117324829102 20.15084838867188 C 22.86788368225098 19.51926803588867 22.87285423278809 18.87277793884277 22.27609443664551 18.27600860595703 L 19.27733421325684 15.28221797943115 C 19.08338356018066 15.0733585357666 18.77505493164062 14.83961772918701 18.39710426330566 14.83961772918701 C 18.08877372741699 14.83961772918701 17.77547454833984 14.99378776550293 17.48703384399414 15.28221797943115 L 15.62710380554199 17.14214897155762 C 15.54256439208984 17.22668838500977 15.28396415710449 17.48031806945801 14.88612365722656 17.48031806945801 C 14.72698402404785 17.48031806945801 14.56784439086914 17.44052886962891 14.40373420715332 17.35598754882812 C 14.38384437561035 17.34603881835938 14.36892414093018 17.33609771728516 14.34903430938721 17.32614898681641 C 14.18492412567139 17.22171783447266 14.00091361999512 17.12722778320312 13.80199432373047 17.02776718139648 C 13.58815383911133 16.91835784912109 13.35939407348633 16.8089485168457 13.14554405212402 16.66970825195312 C 11.41492366790771 15.57065773010254 9.84343433380127 14.14338779449463 8.351513862609863 12.30335807800293 C 7.521014213562012 11.25900840759277 6.988893985748291 10.38374805450439 6.605974197387695 9.463738441467285 C 6.601004123687744 9.448818206787109 6.596024036407471 9.438868522644043 6.59105396270752 9.423948287963867 C 6.491594314575195 9.125568389892578 6.426944255828857 8.732698440551758 6.839704036712646 8.319928169250488 C 6.849654197692871 8.309988021850586 6.854624271392822 8.305007934570312 6.864573955535889 8.29506778717041 C 7.341984272003174 7.872358322143555 7.774643898010254 7.429758071899414 8.237133979797363 6.962287902832031 C 8.391304016113281 6.808117866516113 8.545464515686035 6.648988246917725 8.699634552001953 6.494818210601807 C 9.007964134216309 6.186488151550293 9.16710376739502 5.873188018798828 9.16710376739502 5.564857959747314 C 9.16710376739502 5.256527900695801 9.007964134216309 4.943228244781494 8.699634552001953 4.63489818572998 L 7.217664241790771 3.152918100357056 C 7.043603897094727 2.973888158798218 6.86954402923584 2.799838066101074 6.700464248657227 2.625778198242188 C 6.36229419708252 2.282638072967529 6.048994064331055 1.959388136863708 5.715794086456299 1.651058077812195 C 5.432333946228027 1.362618088722229 5.124003887176514 1.218398094177246 4.820643901824951 1.218398094177246 Z"/></g></g></g></svg>