<svg xmlns="http://www.w3.org/2000/svg" xmlns:xlink="http://www.w3.org/1999/xlink" width="440" height="437" viewBox="0 0 440 437"><defs><style>.a,.l{fill:#fff;}.b{fill:#f7f7f7;}.c,.d,.j,.k{fill:#0c0c0c;}.c,.e,.j,.l{font-size:10px;font-weight:500;}.c,.e{font-family:Montserrat-Medium, Montserrat;}.d{font-size:14px;font-family:Montserrat-Bold, Montserrat;font-weight:700;}.e{fill:#373737;}.f{clip-path:url(#a);}.g{fill:#28fc19;opacity:0.1;}.h,.i{fill:rgba(255,255,255,0);}.h{stroke:#28fc19;}.i{stroke:#0c0c0c;}.j,.l{font-family:Poppins-Medium, Poppins;}.m{stroke:none;}.n{fill:none;}</style><clipPath id="a"><rect class="a" width="336" height="369"/></clipPath></defs><g transform="translate(-480 -588)"><rect class="b" width="440" height="437" rx="16" transform="translate(480 588)"/><text class="c" transform="translate(531 1002)"><tspan x="0" y="0">0</tspan></text><text class="c" transform="translate(592 1002)"><tspan x="0" y="0">100</tspan></text><text class="c" transform="translate(662 1002)"><tspan x="0" y="0">200</tspan></text><text class="c" transform="translate(735 1002)"><tspan x="0" y="0">300</tspan></text><text class="c" transform="translate(807 1002)"><tspan x="0" y="0">400</tspan></text><text class="c" transform="translate(881 1002)"><tspan x="0" y="0">500</tspan></text><text class="d" transform="translate(500 622)"><tspan x="0" y="0">Total Reservation</tspan></text><text class="e" transform="translate(501 715)"><tspan x="0" y="0">Mar</tspan></text><text class="e" transform="translate(500 773)"><tspan x="0" y="0">May</tspan></text><text class="e" transform="translate(503 656)"><tspan x="0" y="0">Jan</tspan></text><text class="e" transform="translate(502 685)"><tspan x="0" y="0">Feb</tspan></text><text class="e" transform="translate(503 744)"><tspan x="0" y="0">Apr</tspan></text><text class="e" transform="translate(501 979)"><tspan x="0" y="0">Dec</tspan></text><text class="e" transform="translate(506 832)"><tspan x="0" y="0">Jul</tspan></text><text class="e" transform="translate(502 891)"><tspan x="0" y="0">Sep</tspan></text><text class="e" transform="translate(503 920)"><tspan x="0" y="0">Oct</tspan></text><text class="e" transform="translate(501 950)"><tspan x="0" y="0">Nov</tspan></text><text class="e" transform="translate(500 862)"><tspan x="0" y="0">Aug</tspan></text><text class="e" transform="translate(502 803)"><tspan x="0" y="0">Jun</tspan></text><g class="f" transform="translate(531 982) rotate(-90)"><g transform="translate(-1.207 -41.373)"><path class="g" d="M0,205.261s.391,31.028,41.8,46.144,44.148,58.873,61.338,58.078,38.287,44.553,58.994,35.8,23.441-27.846,54.7-23.072,36.725-23.072,66.808-27.846,37.506-34.21,53.134-32.619S336.774,0,336.774,0H0Z"/><path class="h" d="M0,205.261s.391,31.028,41.8,46.144,44.148,58.873,61.338,58.078,38.287,44.553,58.994,35.8,23.441-27.846,54.7-23.072,36.725-23.072,66.808-27.846,37.506-34.21,53.134-32.619c8.955.912,7.647-85.161,4.894-158.938C339.623,48.014,336.774,0,336.774,0H0Z"/></g></g><g transform="translate(645.112 606)"><g class="i" transform="translate(-0.112)"><rect class="m" width="60" height="23" rx="8"/><rect class="n" x="0.5" y="0.5" width="59" height="22" rx="7.5"/></g><text class="j" transform="translate(29.888 15)"><tspan x="-15.7" y="0">Today</tspan></text></g><g transform="translate(709.733 606)"><g class="i" transform="translate(0.267)"><rect class="m" width="60" height="23" rx="8"/><rect class="n" x="0.5" y="0.5" width="59" height="22" rx="7.5"/></g><text class="j" transform="translate(30.267 15)"><tspan x="-18.165" y="0">Weekly</tspan></text></g><g transform="translate(774.733 606)"><g class="i" transform="translate(0.267)"><rect class="m" width="60" height="23" rx="8"/><rect class="n" x="0.5" y="0.5" width="59" height="22" rx="7.5"/></g><text class="j" transform="translate(30.267 15)"><tspan x="-20.18" y="0">Monthly</tspan></text></g><g transform="translate(840.001 606)"><rect class="k" width="60" height="23" rx="8" transform="translate(-0.001)"/><text class="l" transform="translate(29.999 15)"><tspan x="-15.65" y="0">Yearly</tspan></text></g></g></svg>