<svg xmlns="http://www.w3.org/2000/svg" xmlns:xlink="http://www.w3.org/1999/xlink" width="440" height="437" viewBox="0 0 440 437"><defs><style>.a,.l{fill:#fff;}.b{fill:#f7f7f7;}.c,.h,.j,.k{fill:#0c0c0c;}.c{font-size:14px;font-family:Montserrat-Bold, Montserrat;font-weight:700;}.d{fill:#373737;}.d,.h,.j,.l{font-size:10px;font-weight:500;}.d,.h{font-family:Montserrat-Medium, Montserrat;}.e{clip-path:url(#a);}.f{fill:#fc1919;opacity:0.1;}.g,.i{fill:rgba(255,255,255,0);}.g{stroke:#fc1919;}.i{stroke:#0c0c0c;}.j,.l{font-family:Poppins-Medium, Poppins;}.m{stroke:none;}.n{fill:none;}</style><clipPath id="a"><rect class="a" width="336" height="369"/></clipPath></defs><g transform="translate(-480 -588)"><rect class="b" width="440" height="437" rx="16" transform="translate(480 588)"/><text class="c" transform="translate(500 622)"><tspan x="0" y="0">Event Attendees</tspan></text><text class="d" transform="translate(501 715)"><tspan x="0" y="0">Mar</tspan></text><text class="d" transform="translate(500 773)"><tspan x="0" y="0">May</tspan></text><text class="d" transform="translate(503 656)"><tspan x="0" y="0">Jan</tspan></text><text class="d" transform="translate(502 685)"><tspan x="0" y="0">Feb</tspan></text><text class="d" transform="translate(503 744)"><tspan x="0" y="0">Apr</tspan></text><text class="d" transform="translate(501 979)"><tspan x="0" y="0">Dec</tspan></text><text class="d" transform="translate(506 832)"><tspan x="0" y="0">Jul</tspan></text><text class="d" transform="translate(502 891)"><tspan x="0" y="0">Sep</tspan></text><text class="d" transform="translate(503 920)"><tspan x="0" y="0">Oct</tspan></text><text class="d" transform="translate(501 950)"><tspan x="0" y="0">Nov</tspan></text><text class="d" transform="translate(500 862)"><tspan x="0" y="0">Aug</tspan></text><text class="d" transform="translate(502 803)"><tspan x="0" y="0">Jun</tspan></text><g class="e" transform="translate(900 646) rotate(90)"><g transform="translate(-1.207 63.966)"><path class="f" d="M-420.58,506.267s.391-31.028,41.8-46.144,44.148-58.873,61.338-58.078,38.287-44.553,58.994-35.8,23.441,27.846,54.7,23.072,36.725,23.072,66.808,27.846,37.506,34.21,53.134,32.619,0,261.748,0,261.748H-420.58Z" transform="translate(420.58 -365.122)"/><path class="g" d="M-420.58,506.267s.391-31.028,41.8-46.144,44.148-58.873,61.338-58.078,38.287-44.553,58.994-35.8,23.441,27.846,54.7,23.072,36.725,23.072,66.808,27.846,37.506,34.21,53.134,32.619c8.955-.912,7.647,85.161,4.894,158.938-2.045,54.8-4.894,102.81-4.894,102.81H-420.58Z" transform="translate(420.58 -365.122)"/></g></g><text class="h" transform="translate(531 1002)"><tspan x="0" y="0">0</tspan></text><text class="h" transform="translate(592 1002)"><tspan x="0" y="0">100</tspan></text><text class="h" transform="translate(662 1002)"><tspan x="0" y="0">200</tspan></text><text class="h" transform="translate(735 1002)"><tspan x="0" y="0">300</tspan></text><text class="h" transform="translate(807 1002)"><tspan x="0" y="0">400</tspan></text><text class="h" transform="translate(881 1002)"><tspan x="0" y="0">500</tspan></text><g transform="translate(645.112 606)"><g class="i" transform="translate(-0.112)"><rect class="m" width="60" height="23" rx="8"/><rect class="n" x="0.5" y="0.5" width="59" height="22" rx="7.5"/></g><text class="j" transform="translate(29.888 15)"><tspan x="-15.7" y="0">Today</tspan></text></g><g transform="translate(709.733 606)"><g class="i" transform="translate(0.267)"><rect class="m" width="60" height="23" rx="8"/><rect class="n" x="0.5" y="0.5" width="59" height="22" rx="7.5"/></g><text class="j" transform="translate(30.267 15)"><tspan x="-18.165" y="0">Weekly</tspan></text></g><g transform="translate(774.733 606)"><g class="i" transform="translate(0.267)"><rect class="m" width="60" height="23" rx="8"/><rect class="n" x="0.5" y="0.5" width="59" height="22" rx="7.5"/></g><text class="j" transform="translate(30.267 15)"><tspan x="-20.18" y="0">Monthly</tspan></text></g><g transform="translate(840.001 606)"><rect class="k" width="60" height="23" rx="8" transform="translate(-0.001)"/><text class="l" transform="translate(29.999 15)"><tspan x="-15.65" y="0">Yearly</tspan></text></g></g></svg>