<svg xmlns="http://www.w3.org/2000/svg" xmlns:xlink="http://www.w3.org/1999/xlink" width="18" height="18" viewBox="0 0 18 18">
  <defs>
    <clipPath id="clip-path">
      <rect id="Rectangle_593" data-name="Rectangle 593" width="18" height="18" transform="translate(95 849)" fill="#0c0c0c" opacity="0.1"/>
    </clipPath>
  </defs>
  <g id="Mask_Group_50" data-name="Mask Group 50" transform="translate(-95 -849)" clip-path="url(#clip-path)">
    <g id="event" transform="translate(95 849)">
      <g id="Group_607" data-name="Group 607">
        <g id="Group_606" data-name="Group 606">
          <path id="Path_2012" data-name="Path 2012" d="M15.349,8.231h0V3.691a1.975,1.975,0,0,0-1.963-1.97h-.244V1.413a1.394,1.394,0,1,0-2.788,0v.308H5.243V1.413a1.413,1.413,0,1,0-2.827,0v.308H2.205A1.971,1.971,0,0,0,.248,3.691V14.115a1.971,1.971,0,0,0,1.957,1.971H8.346a5.32,5.32,0,1,0,7-7.855Zm-4.22-6.818a.611.611,0,0,1,.6-.621h.016a.616.616,0,0,1,.623.61s0,.008,0,.012V2.921H11.128Zm-7.937,0A.628.628,0,0,1,3.826.792h0a.632.632,0,0,1,.641.622V2.921H3.191ZM1.023,3.691A1.2,1.2,0,0,1,2.205,2.5h.211v.829a.378.378,0,0,0,.392.371H4.846a.382.382,0,0,0,.4-.371V2.5h5.111v.829a.361.361,0,0,0,.35.371h2.059a.367.367,0,0,0,.379-.354c0-.006,0-.011,0-.017V2.5h.244a1.2,1.2,0,0,1,1.188,1.2V4.935H1.023V3.691Zm1.183,11.62a1.2,1.2,0,0,1-1.183-1.2V5.709H14.574v2.1a5.324,5.324,0,0,0-6.765,7.5Zm10.228,1.907a4.541,4.541,0,1,1,4.541-4.541h0A4.547,4.547,0,0,1,12.433,17.219Z" fill="#0c0c0c"/>
        </g>
      </g>
      <g id="Group_609" data-name="Group 609">
        <g id="Group_608" data-name="Group 608">
          <path id="Path_2013" data-name="Path 2013" d="M14.257,12.679h-1.7v-2.33a.387.387,0,0,0-.774,0v2.717a.394.394,0,0,0,.394.388h2.076a.387.387,0,0,0,0-.774Z" fill="#0c0c0c"/>
        </g>
      </g>
    </g>
  </g>
</svg>
