<svg xmlns="http://www.w3.org/2000/svg" xmlns:xlink="http://www.w3.org/1999/xlink" width="24" height="24" viewBox="0 0 24 24"><defs><style>.a{fill:#0c0c0c;}.b{clip-path:url(#a);}</style><clipPath id="a"><rect class="a" width="24" height="24" transform="translate(1216 532)"/></clipPath></defs><g class="b" transform="translate(-1216 -532)"><g transform="translate(1216 532)"><path class="a" d="M17.5,0H6.5A6.5,6.5,0,0,0,0,6.5V17.5A6.5,6.5,0,0,0,6.5,24H17.5A6.5,6.5,0,0,0,24,17.5V6.5A6.5,6.5,0,0,0,17.5,0Zm5.09,17.5a5.1,5.1,0,0,1-5.09,5.089H6.5A5.1,5.1,0,0,1,1.407,17.5V6.5A5.1,5.1,0,0,1,6.5,1.407H17.5A5.1,5.1,0,0,1,22.593,6.5Zm0,0" transform="translate(0 0)"/><path class="a" d="M10.187,3.625a6.562,6.562,0,1,0,6.562,6.562A6.57,6.57,0,0,0,10.187,3.625Zm0,11.718a5.155,5.155,0,1,1,5.155-5.155A5.161,5.161,0,0,1,10.187,15.343Zm0,0" transform="translate(1.813 1.813)"/><path class="a" d="M13.126,2.071A1.939,1.939,0,1,0,15.065,4.01,1.941,1.941,0,0,0,13.126,2.071Zm0,2.471a.532.532,0,1,1,.532-.532A.533.533,0,0,1,13.126,4.543Zm0,0" transform="translate(5.593 1.036)"/></g></g></svg>