<svg id="Small_Icon_Button" data-name="Small Icon Button" xmlns="http://www.w3.org/2000/svg" xmlns:xlink="http://www.w3.org/1999/xlink" width="48" height="48" viewBox="0 0 48 48">
  <defs>
    <clipPath id="clip-path">
      <rect id="Rectangle_474" data-name="Rectangle 474" width="24" height="24" fill="#100840"/>
    </clipPath>
  </defs>
  <rect id="Rectangle_473" data-name="Rectangle 473" width="48" height="48" rx="24" fill="#fff"/>
  <g id="Mask_Group_51" data-name="Mask Group 51" transform="translate(12 12)" clip-path="url(#clip-path)">
    <g id="logout_2_" data-name="logout (2)" transform="translate(0 2.886)">
      <g id="Group_624" data-name="Group 624">
        <path id="Path_2017" data-name="Path 2017" d="M15.9,5.925V18.075a3.046,3.046,0,0,1-3.04,3.04H3.045A3.046,3.046,0,0,1,0,18.075V16.107a.6.6,0,1,1,1.2,0v1.968A1.845,1.845,0,0,0,3.05,19.915h9.814A1.845,1.845,0,0,0,14.7,18.075V5.925a1.845,1.845,0,0,0-1.841-1.841H3.045A1.845,1.845,0,0,0,1.2,5.925V7.893a.6.6,0,1,1-1.2,0V5.925a3.046,3.046,0,0,1,3.04-3.04h9.824A3.043,3.043,0,0,1,15.9,5.925Z" transform="translate(8.096 -2.886)" fill="#100840"/>
        <path id="Path_2018" data-name="Path 2018" d="M15.233,16.528a.6.6,0,0,1-.852,0l-4.107-4.107a.6.6,0,0,1,0-.847l4.107-4.107a.6.6,0,0,1,.847.847L12.144,11.4H23.4a.6.6,0,0,1,0,1.2H12.149l3.084,3.084A.591.591,0,0,1,15.233,16.528Z" transform="translate(-10.098 -2.886)" fill="#100840"/>
      </g>
    </g>
  </g>
</svg>
