<svg xmlns="http://www.w3.org/2000/svg" xmlns:xlink="http://www.w3.org/1999/xlink" width="24" height="24" viewBox="0 0 24 24"><defs><style>.a{fill:#0c0c0c;}.b{clip-path:url(#a);}</style><clipPath id="a"><rect class="a" width="24" height="24" transform="translate(1216 399)"/></clipPath></defs><g class="b" transform="translate(-1216 -399)"><g transform="translate(1216 399)"><path class="a" d="M23.249,10.189,13.811.751a2.559,2.559,0,0,0-3.621,0L.751,10.189a2.559,2.559,0,0,0,0,3.621l9.439,9.439a2.559,2.559,0,0,0,3.621,0l9.439-9.439a2.559,2.559,0,0,0,0-3.621ZM22.189,12.75,12.75,22.189a1.06,1.06,0,0,1-1.5,0L1.811,12.75a1.06,1.06,0,0,1,0-1.5L11.25,1.811a1.06,1.06,0,0,1,1.5,0l9.439,9.439A1.042,1.042,0,0,1,22.5,12a1.054,1.054,0,0,1-.311.75Z" transform="translate(0 0)"/><path class="a" d="M15.126,7.422c-.059-.089.122.1-2.636-2.7a.75.75,0,0,0-1.069,1.052l1.328,1.349H5.5a.75.75,0,0,0-.75.75V12.75a.75.75,0,1,0,1.5,0V8.625h6.418L11.34,9.974a.75.75,0,0,0,1.069,1.052l2.461-2.5a.79.79,0,0,0,.256-1.1Z" transform="translate(2.375 2.25)"/></g></g></svg>