<svg xmlns="http://www.w3.org/2000/svg" width="150" height="150" viewBox="0 0 150 150"><defs><style>.a{fill:#100840;}</style></defs><g transform="translate(0 -0.07)"><g transform="translate(0 0.07)"><path class="a" d="M128.066,22.01a75,75,0,1,0,0,106.118A75.1,75.1,0,0,0,128.066,22.01Zm-8.217,97.9a63.407,63.407,0,1,1,0-89.68A63.461,63.461,0,0,1,119.849,119.909Z" transform="translate(0 -0.07)"/></g><g transform="translate(48.996 48.348)"><path class="a" d="M218.3,207.6l-16.451-16.432L218.3,174.739a5.813,5.813,0,1,0-8.216-8.225l-16.462,16.443-16.462-16.443a5.813,5.813,0,1,0-8.216,8.225l16.451,16.432L168.941,207.6a5.813,5.813,0,0,0,8.217,8.224l16.462-16.443,16.462,16.443A5.813,5.813,0,1,0,218.3,207.6Z" transform="translate(-167.236 -164.813)"/></g></g></svg>