<svg id="Small_Icon_Button" data-name="Small Icon Button" xmlns="http://www.w3.org/2000/svg" xmlns:xlink="http://www.w3.org/1999/xlink" width="48" height="48" viewBox="0 0 48 48">
  <defs>
    <clipPath id="clip-path">
      <rect id="Rectangle_474" data-name="Rectangle 474" width="24" height="24" fill="#100840"/>
    </clipPath>
  </defs>
  <rect id="Rectangle_473" data-name="Rectangle 473" width="48" height="48" rx="24" fill="#fff"/>
  <g id="Mask_Group_15" data-name="Mask Group 15" transform="translate(12 12)" clip-path="url(#clip-path)">
    <g id="preview" transform="translate(0 2)">
      <g id="Group_493" data-name="Group 493">
        <path id="Path_1911" data-name="Path 1911" d="M.5,7A.5.5,0,0,1,0,6.5v-2A2.5,2.5,0,0,1,2.5,2h2a.5.5,0,0,1,0,1h-2A1.5,1.5,0,0,0,1,4.5v2A.5.5,0,0,1,.5,7Z" transform="translate(0 -2)" fill="#100840"/>
      </g>
      <g id="Group_494" data-name="Group 494" transform="translate(19)">
        <path id="Path_1912" data-name="Path 1912" d="M23.5,7a.5.5,0,0,1-.5-.5v-2A1.5,1.5,0,0,0,21.5,3h-2a.5.5,0,0,1,0-1h2A2.5,2.5,0,0,1,24,4.5v2A.5.5,0,0,1,23.5,7Z" transform="translate(-19 -2)" fill="#100840"/>
      </g>
      <g id="Group_495" data-name="Group 495" transform="translate(0 15)">
        <path id="Path_1913" data-name="Path 1913" d="M4.5,22h-2A2.5,2.5,0,0,1,0,19.5v-2a.5.5,0,0,1,1,0v2A1.5,1.5,0,0,0,2.5,21h2a.5.5,0,0,1,0,1Z" transform="translate(0 -17)" fill="#100840"/>
      </g>
      <g id="Group_496" data-name="Group 496" transform="translate(19 15)">
        <path id="Path_1914" data-name="Path 1914" d="M21.5,22h-2a.5.5,0,0,1,0-1h2A1.5,1.5,0,0,0,23,19.5v-2a.5.5,0,0,1,1,0v2A2.5,2.5,0,0,1,21.5,22Z" transform="translate(-19 -17)" fill="#100840"/>
      </g>
      <g id="Group_497" data-name="Group 497" transform="translate(4 4)">
        <path id="Path_1915" data-name="Path 1915" d="M12,18a8.026,8.026,0,0,1-7.985-5.881.48.48,0,0,1,0-.238A8.026,8.026,0,0,1,12,6a8.026,8.026,0,0,1,7.985,5.881.48.48,0,0,1,0,.238A8.026,8.026,0,0,1,12,18ZM5.016,12A7.049,7.049,0,0,0,12,17a7.049,7.049,0,0,0,6.984-5A7.048,7.048,0,0,0,12,7a7.048,7.048,0,0,0-6.984,5Z" transform="translate(-4 -6)" fill="#100840"/>
      </g>
      <g id="Group_498" data-name="Group 498" transform="translate(9 7)">
        <path id="Path_1916" data-name="Path 1916" d="M12,15a3,3,0,1,1,3-3A3,3,0,0,1,12,15Zm0-5a2,2,0,1,0,2,2A2,2,0,0,0,12,10Z" transform="translate(-9 -9)" fill="#100840"/>
      </g>
    </g>
  </g>
</svg>
