<svg id="Small_Icon_Button" data-name="Small Icon Button" xmlns="http://www.w3.org/2000/svg" xmlns:xlink="http://www.w3.org/1999/xlink" width="48" height="48" viewBox="0 0 48 48">
  <defs>
    <clipPath id="clip-path">
      <rect id="Rectangle_474" data-name="Rectangle 474" width="24" height="24" transform="translate(12 12)" fill="#100840"/>
    </clipPath>
  </defs>
  <rect id="Rectangle_473" data-name="Rectangle 473" width="48" height="48" rx="24" fill="#f7f7f7"/>
  <g id="Mask_Group_34" data-name="Mask Group 34" clip-path="url(#clip-path)">
    <g id="user_4_" data-name="user (4)" transform="translate(12 12)">
      <g id="Group_571" data-name="Group 571">
        <g id="Group_570" data-name="Group 570">
          <path id="Path_1973" data-name="Path 1973" d="M17.049,11.6a7.26,7.26,0,0,1-1.108,1.127,7.951,7.951,0,0,1,4,6.9c0,1.593-3.49,2.841-7.946,2.841s-7.946-1.248-7.946-2.841a7.951,7.951,0,0,1,4-6.9A7.262,7.262,0,0,1,6.951,11.6a9.485,9.485,0,0,0-4.434,8.024c0,1.022.56,2.447,3.227,3.429A18.794,18.794,0,0,0,12,24a18.794,18.794,0,0,0,6.257-.95c2.667-.982,3.227-2.407,3.227-3.429A9.485,9.485,0,0,0,17.049,11.6Z" fill="#100840"/>
          <path id="Path_1974" data-name="Path 1974" d="M12,12.611c2.989,0,5.29-2.889,5.29-6.305S14.988,0,12,0,6.71,2.889,6.71,6.305,9.012,12.611,12,12.611ZM12,1.538c2.069,0,3.752,2.139,3.752,4.767S14.069,11.073,12,11.073,8.247,8.934,8.247,6.305,9.931,1.538,12,1.538Z" fill="#100840"/>
        </g>
      </g>
    </g>
  </g>
</svg>
