<svg xmlns="http://www.w3.org/2000/svg" xmlns:xlink="http://www.w3.org/1999/xlink" width="80" height="80" viewBox="0 0 80 80"><defs><style>.a{fill:#f7f7f7;stroke-width:3px;}.a,.b{stroke:#100840;}.b{fill:#fff;stroke-width:2px;}.c{clip-path:url(#a);}.d{fill:#100840;}.e{stroke:none;}.f{fill:none;}</style><clipPath id="a"><rect class="a" width="80" height="80" rx="40" transform="translate(1280 490)"/></clipPath></defs><g transform="translate(-1280 -490)"><g class="b" transform="translate(1280 490)"><rect class="e" width="80" height="80" rx="40"/><rect class="f" x="1" y="1" width="78" height="78" rx="39"/></g><g class="c"><g transform="translate(1293 502.087)"><path class="d" d="M51.969,42.143a3.372,3.372,0,0,1-1.228-2.561V31.245s0-.008,0-.012a6.563,6.563,0,0,0-6.6-6.493H43.2V7.783a3.9,3.9,0,0,0-3.929-3.871H4.4c-.583,0-.583,2.078,0,2.078H39.268a1.808,1.808,0,0,1,1.819,1.793V24.74H39.349a6.72,6.72,0,0,0-1.9.274V10.532A1.047,1.047,0,0,0,36.4,9.493H30.473V8.645a1.055,1.055,0,0,0-2.109,0v.848h-5.71V8.645a1.055,1.055,0,0,0-2.109,0v.848h-5.71V8.645a1.055,1.055,0,0,0-2.109,0v.848H6.8a1.047,1.047,0,0,0-1.055,1.039v20.39a1.055,1.055,0,0,0,.53.9l10.083,5.723a1.082,1.082,0,0,0,.526.139H32.746v1.9a3.233,3.233,0,0,1-.34,1.431H3.929a1.808,1.808,0,0,1-1.819-1.793V7.783A1.808,1.808,0,0,1,3.929,5.991h2.1a1.039,1.039,0,1,0,0-2.078h-2.1A3.9,3.9,0,0,0,0,7.783V39.221a3.9,3.9,0,0,0,3.929,3.871H30.634a5.869,5.869,0,0,0-1.082,3.549,1.047,1.047,0,0,0,1.055,1.039h6.667a4.476,4.476,0,0,0,8.938,0h6.667a1.047,1.047,0,0,0,1.055-1.039,5.649,5.649,0,0,0-1.964-4.5ZM48.506,30.206H34.981a4.527,4.527,0,0,1,4.367-3.388h4.789A4.489,4.489,0,0,1,48.506,30.206ZM9.935,31.5A8.56,8.56,0,0,0,13.4,29.611l1.61,4.771Zm7.71,4.1-2.866-8.494a1.061,1.061,0,0,0-1.931-.162c-1.122,2.067-3.612,2.68-4.994,2.862V11.571h4.87v.891a1.055,1.055,0,0,0,2.109,0v-.891h5.71v.891a1.055,1.055,0,0,0,2.109,0v-.891h5.71v.891a1.055,1.055,0,0,0,2.109,0v-.891h4.87v14.5a6.483,6.483,0,0,0-2.6,5.18v4.353Zm24.1,14.228a2.354,2.354,0,0,1-2.358-2.155H44.1a2.353,2.353,0,0,1-2.357,2.155Zm3.3-4.233H31.77a3.361,3.361,0,0,1,1.121-1.881,5.479,5.479,0,0,0,1.964-4.137v-7.3H48.631v7.3a5.435,5.435,0,0,0,1.963,4.138,3.362,3.362,0,0,1,1.12,1.881H45.048Z"/><path class="d" d="M70.312,31.991A7.744,7.744,0,0,1,74.6,35.775a1.072,1.072,0,0,0,1.4.5,1.033,1.033,0,0,0,.5-1.383A9.755,9.755,0,0,0,70.922,30a1.055,1.055,0,0,0-1.31.693A1.039,1.039,0,0,0,70.312,31.991Z" transform="translate(-22.609 -8.724)"/><path class="d" d="M42,70.9a2.458,2.458,0,0,1-2.473-2.437,1.055,1.055,0,0,0-2.109,0A4.554,4.554,0,0,0,42,72.977,1.039,1.039,0,1,0,42,70.9Z" transform="translate(-12.159 -21.272)"/><path class="d" d="M31.763,24.26H29.41a1.039,1.039,0,1,0,0,2.078h1.3v9.806a1.055,1.055,0,0,0,2.109,0V25.3A1.047,1.047,0,0,0,31.763,24.26Z" transform="translate(-9.216 -6.815)"/></g></g></g></svg>