<svg xmlns="http://www.w3.org/2000/svg" xmlns:xlink="http://www.w3.org/1999/xlink" width="24" height="24" viewBox="0 0 24 24"><defs><style>.a{fill:#0c0c0c;}.b{clip-path:url(#a);}</style><clipPath id="a"><rect class="a" width="24" height="24" transform="translate(1216 602)"/></clipPath></defs><g class="b" transform="translate(-1216 -602)"><path class="a" d="M.436,19.042A14.074,14.074,0,0,0,7.993,21.22,13.82,13.82,0,0,0,22.012,7.169a5.739,5.739,0,0,0,2.072-3.885.759.759,0,0,0-1.142-.654,3.134,3.134,0,0,1-2.548.427,5.412,5.412,0,0,0-6.411-.863,5.207,5.207,0,0,0-2.827,4.881A12.558,12.558,0,0,1,3.01,2.626a.759.759,0,0,0-1.239.1,5.282,5.282,0,0,0-.118,5.216.789.789,0,0,0-.659.785,5.345,5.345,0,0,0,1.862,4.037.757.757,0,0,0-.194.785,5.44,5.44,0,0,0,3.079,3.3,8.824,8.824,0,0,1-4.806.8.758.758,0,0,0-.5,1.391ZM8.2,17.108a.758.758,0,0,0-.446-1.358,3.953,3.953,0,0,1-3.1-1.615,5.345,5.345,0,0,0,1.035-.166A.758.758,0,0,0,5.636,12.5,3.89,3.89,0,0,1,2.688,9.848,5.23,5.23,0,0,0,3.844,10a.759.759,0,0,0,.431-1.39A3.765,3.765,0,0,1,2.663,4.5,14.09,14.09,0,0,0,12,8.667a.756.756,0,0,0,.775-.927A3.7,3.7,0,0,1,14.7,3.529a3.875,3.875,0,0,1,4.737.719c.452.476,1.976.494,2.751.313a4.885,4.885,0,0,1-1.382,1.626.758.758,0,0,0-.322.658A12.322,12.322,0,0,1,17.092,15.9a12.41,12.41,0,0,1-9.1,3.8,12.726,12.726,0,0,1-4.083-.669A10.234,10.234,0,0,0,8.2,17.108Z" transform="translate(1215.916 602.632)"/></g></svg>