<svg xmlns="http://www.w3.org/2000/svg" xmlns:xlink="http://www.w3.org/1999/xlink" width="24" height="24" viewBox="0 0 24 24"><defs><style>.a{fill:#0c0c0c;}.b{clip-path:url(#a);}</style><clipPath id="a"><rect class="a" width="24" height="24" transform="translate(1216 497)"/></clipPath></defs><g class="b" transform="translate(-1216 -497)"><g transform="translate(1216 497)"><path class="a" d="M12,0C6.931,0,0,3.831,0,12A11.926,11.926,0,0,0,12,24c9.151,0,12-8.017,12-12A11.9,11.9,0,0,0,12,0ZM9.217,1.129A10.715,10.715,0,0,0,6.255,6.156,11.148,11.148,0,0,1,3.879,4.261,11.243,11.243,0,0,1,9.217,1.129ZM3.364,4.838A11.765,11.765,0,0,0,6.043,6.926a20.289,20.289,0,0,0-.614,4.687H.784A11.177,11.177,0,0,1,3.364,4.838Zm0,14.324a11.148,11.148,0,0,1-2.58-6.775H5.428a20.255,20.255,0,0,0,.614,4.687A12.113,12.113,0,0,0,3.364,19.162Zm.515.581a11.148,11.148,0,0,1,2.376-1.894,10.739,10.739,0,0,0,2.962,5.027A11.32,11.32,0,0,1,3.879,19.743ZM11.613,23.2c-2.013-.255-3.746-2.5-4.682-5.726a11.292,11.292,0,0,1,4.682-1.2Zm0-7.7a12.02,12.02,0,0,0-4.88,1.214A20.266,20.266,0,0,1,6.2,12.387h5.414V15.5Zm0-3.883H6.2A20.266,20.266,0,0,1,6.732,7.29,12.058,12.058,0,0,0,11.613,8.5Zm0-3.879a11.2,11.2,0,0,1-4.682-1.2C7.866,3.3,9.6,1.058,11.613.8Zm9.024-2.9a11.177,11.177,0,0,1,2.58,6.775H18.576a20.255,20.255,0,0,0-.614-4.687A11.979,11.979,0,0,0,20.636,4.838Zm-.515-.581a11.148,11.148,0,0,1-2.376,1.894,10.763,10.763,0,0,0-2.962-5.027A11.32,11.32,0,0,1,20.121,4.257ZM12.387.8c2.013.255,3.746,2.5,4.682,5.726a11.274,11.274,0,0,1-4.682,1.2Zm0,7.7a12.02,12.02,0,0,0,4.88-1.214,20.266,20.266,0,0,1,.534,4.323H12.387Zm0,3.883H17.8a20.266,20.266,0,0,1-.534,4.323,11.87,11.87,0,0,0-4.88-1.214Zm0,10.809V16.266a11.2,11.2,0,0,1,4.682,1.2C16.134,20.7,14.4,22.942,12.387,23.2Zm2.4-.326a10.715,10.715,0,0,0,2.962-5.027,11.148,11.148,0,0,1,2.376,1.894A11.243,11.243,0,0,1,14.783,22.871Zm5.854-3.709a11.979,11.979,0,0,0-2.674-2.088,20.289,20.289,0,0,0,.614-4.687h4.639A11.177,11.177,0,0,1,20.636,19.162Z"/></g></g></svg>