<svg xmlns="http://www.w3.org/2000/svg" width="207" height="207">
    <defs>
        <clipPath id="clip-path">
            <rect id="Rectangle_448" data-name="Rectangle 448" class="cls-1" width="207" height="207" rx="24" transform="translate(548 1345)"/>
        </clipPath>
        <style>
            .cls-1{fill:#1981fc}
        </style>
    </defs>
    <g id="Mask_Group_6" data-name="Mask Group 6" transform="translate(-548 -1345)" style="clip-path:url(#clip-path)">
        <g id="XMLID_2309_" transform="translate(548 1355.916)">
            <g id="XMLID_81_">
                <path id="XMLID_125_" class="cls-1" d="M157.776 73.931v45.281a4.043 4.043 0 1 0 8.086 0V73.931a4.043 4.043 0 1 0-8.086 0z" transform="translate(-68.785 -41.385)"/>
                <path id="XMLID_126_" class="cls-1" d="M81.038 123.254h.035a5.078 5.078 0 0 0 4.769-3.461l14.785-44.505a4.043 4.043 0 0 0-7.674-2.549L80.975 108.8 68.413 72.6a4.043 4.043 0 1 0-7.639 2.652l15.491 44.629a5.071 5.071 0 0 0 4.773 3.373z" transform="translate(-26.397 -41.384)"/>
                <path id="XMLID_129_" class="cls-1" d="M206 119.212v-15.649c2.9-.016 6.62-.034 8.565-.034a16.823 16.823 0 1 0 0-33.642H201.96a4.043 4.043 0 0 0-4.043 4.043v45.281a4.043 4.043 0 1 0 8.086 0zm17.551-32.5a8.982 8.982 0 0 1-8.986 8.735c-1.95 0-5.666.017-8.565.033v-17.5h8.565a8.982 8.982 0 0 1 8.988 8.729z" transform="translate(-86.285 -41.385)"/>
                <path id="XMLID_130_" class="cls-1" d="M60.552 190.768a4.043 4.043 0 0 0 4.043 4.043H167.71a4.043 4.043 0 1 0 0-8.086H64.6a4.043 4.043 0 0 0-4.048 4.043z" transform="translate(-26.399 -92.322)"/>
                <path id="XMLID_145_" class="cls-1" d="M205.339 132.362a4.042 4.042 0 0 0-4.45-.208l-17.832 10.614-3.55-3.572V36.334a17 17 0 0 0-16.98-16.98h-99.7c-2.233 0-2.233 8.086 0 8.086h99.7a8.9 8.9 0 0 1 8.895 8.895v94.725l-4.858-4.89a4.044 4.044 0 0 0-5.736 0l-16.494 16.6-17.834-10.615a4.043 4.043 0 0 0-6.008 4.382l1.319 5.723H16.98a8.9 8.9 0 0 1-8.895-8.895V36.334a8.9 8.9 0 0 1 8.895-8.895h54.58c2.233 0 2.233-8.086 0-8.086H16.98A17 17 0 0 0 0 36.334v97.031a17 17 0 0 0 16.98 16.98h106.695l6.983 30.313a12.932 12.932 0 0 0 6.917 23.862h52.242a12.932 12.932 0 0 0 6.917-23.862l10.166-44.122a4.043 4.043 0 0 0-1.561-4.174zm-15.523 64.073h-52.242a4.852 4.852 0 0 1 0-9.7h52.242a4.852 4.852 0 1 1 0 9.7zm-.917-17.789h-50.407l-7.993-34.7 12.411 7.387a4.042 4.042 0 0 0 4.936-.624l15.85-15.952 15.85 15.952a4.043 4.043 0 0 0 4.936.624l12.411-7.387z" transform="translate(0 -19.353)"/>
                <path id="XMLID_147_" class="cls-1" d="M287.1 256.255a4.043 4.043 0 0 0-4.043 4.043v6.873a4.043 4.043 0 0 0 8.086 0V260.3a4.043 4.043 0 0 0-4.043-4.045z" transform="translate(-123.403 -122.635)"/>
            </g>
        </g>
    </g>
</svg>
