<svg xmlns="http://www.w3.org/2000/svg" xmlns:xlink="http://www.w3.org/1999/xlink" width="150" height="150" viewBox="0 0 150 150"><defs><style>.a,.c,.d{fill:#100840;stroke:#fff;}.b{clip-path:url(#a);}.c,.d{stroke-width:0.4px;}.d{fill-rule:evenodd;}</style><clipPath id="a"><rect class="a" width="150" height="150" transform="translate(12 12)"/></clipPath></defs><g class="b" transform="translate(-12 -12)"><g transform="translate(18.245 12.001)"><path class="c" d="M128.435,22.4H110.549l-6.193-11.71A15.9,15.9,0,0,0,90.167,2.4H60.933a15.9,15.9,0,0,0-14.189,8.29L40.551,22.4H22.665C13.9,22.4,6.8,29.116,6.8,37.4v5c0,5.523,4.735,10,10.577,10h.529l9.149,86.5c.793,7.665,7.613,13.508,15.76,13.5h65.471c8.156.021,14.993-5.825,15.786-13.5l9.149-86.5h.5c5.842,0,10.577-4.477,10.577-10v-5C144.3,29.116,137.2,22.4,128.435,22.4ZM56.2,15.165A5.3,5.3,0,0,1,60.933,12.4H90.167A5.3,5.3,0,0,1,94.9,15.165L98.724,22.4H52.376ZM113.548,137.9a5.188,5.188,0,0,1-5.288,4.5H42.814a5.187,5.187,0,0,1-5.262-4.5L28.509,52.4h94.108Zm14.887-95.5H17.377v-5a5.15,5.15,0,0,1,5.288-5H128.435a5.15,5.15,0,0,1,5.288,5v5Z" transform="translate(-6.8 -2.4)"/><path class="d" d="M15.688,67.6a5.15,5.15,0,0,0,5.288-5v-50a5.15,5.15,0,0,0-5.288-5,5.15,5.15,0,0,0-5.289,5v50A5.15,5.15,0,0,0,15.688,67.6Z" transform="translate(37.196 57.4)"/><path class="d" d="M18.089,67.6a5.15,5.15,0,0,0,5.288-5v-50a5.15,5.15,0,0,0-5.288-5,5.15,5.15,0,0,0-5.289,5v50A5.15,5.15,0,0,0,18.089,67.6Z" transform="translate(66.527 57.4)"/></g></g></svg>